# Blender v2.70 (sub 0) OBJ File: ''
# www.blender.org
mtllib cube.mtl
o Cube
v 1.000000 -1.000000 -1.000000
v 1.000000 -1.000000 1.000000
v -1.000000 -1.000000 1.000000
v -1.000000 -1.000000 -1.000000
v 1.000000 1.000000 -1.000000
v 1.000000 1.000000 1.000000
v -1.000000 1.000000 1.000000
v -1.000000 1.000000 -1.000000
vt 1 1
vt 1 0
vt 0 0
vt 0 1
vn 0.000000 -1.000000 0.000000
vn 0.000000 1.000000 -0.000000
vn 1.000000 0.000000 0.000000
vn -0.000000 -0.000000 1.000000
vn -1.000000 -0.000000 -0.000000
vn 0.000000 0.000000 -1.000000
vn 1.000000 -0.000000 0.000000
usemtl Material
s off
f 2/3/1 3/2/1 4/1/1
f 5/3/2 8/2/2 7/1/2
f 5/3/3 6/2/3 2/1/3
f 2/4/4 6/3/4 7/2/4
f 7/3/5 8/2/5 4/1/5
f 1/1/6 4/4/6 8/3/6
f 1/4/1 2/3/1 4/1/1
f 6/4/2 5/3/2 7/1/2
f 1/4/7 5/3/7 2/1/7
f 3/1/4 2/4/4 7/2/4
f 3/4/5 7/3/5 4/1/5
f 5/2/6 1/1/6 8/3/6
